<?xml version="1.0" encoding="UTF-8" standalone="no"?>
<!-- Created with Inkscape (http://www.inkscape.org/) -->

<svg
   width="16.0889"
   height="23.461573"
   viewBox="0 0 16.088899 23.461573"
   version="1.1"
   id="svg1"
   xml:space="preserve"
   inkscape:version="1.4 (86a8ad7, 2024-10-11)"
   sodipodi:docname="EcoGreenU logo inkscape.svg"
   xmlns:inkscape="http://www.inkscape.org/namespaces/inkscape"
   xmlns:sodipodi="http://sodipodi.sourceforge.net/DTD/sodipodi-0.dtd"
   xmlns="http://www.w3.org/2000/svg"
   xmlns:svg="http://www.w3.org/2000/svg"><sodipodi:namedview
     id="namedview1"
     pagecolor="#ffffff"
     bordercolor="#000000"
     borderopacity="0.25"
     inkscape:showpageshadow="2"
     inkscape:pageopacity="0.0"
     inkscape:pagecheckerboard="0"
     inkscape:deskcolor="#d1d1d1"
     inkscape:document-units="px"
     showguides="true"
     inkscape:zoom="5.6568542"
     inkscape:cx="-3.9774756"
     inkscape:cy="4.1542523"
     inkscape:window-width="1920"
     inkscape:window-height="1009"
     inkscape:window-x="-8"
     inkscape:window-y="-8"
     inkscape:window-maximized="1"
     inkscape:current-layer="g16"
     inkscape:clip-to-page="false"><sodipodi:guide
       position="-124.33354,190.67181"
       orientation="1,0"
       id="guide67"
       inkscape:locked="false" /><sodipodi:guide
       position="16.088897,184.96133"
       orientation="1,0"
       id="guide68"
       inkscape:locked="false" /></sodipodi:namedview><defs
     id="defs1"><linearGradient
       id="swatch61"
       inkscape:swatch="solid"><stop
         style="stop-color:#652313;stop-opacity:1;"
         offset="0"
         id="stop61" /></linearGradient></defs><g
     inkscape:label="light color"
     inkscape:groupmode="layer"
     id="layer1"
     style="display:none"
     transform="translate(-144.12232,-75.805103)"><text
       xml:space="preserve"
       style="font-size:26.6667px;text-align:start;writing-mode:lr-tb;direction:ltr;text-anchor:start;display:none;fill:#000000"
       x="17.899885"
       y="99.000008"
       id="text1"
       inkscape:label="EcoGreenU"><tspan
         sodipodi:role="line"
         id="tspan1"
         x="0"
         y="0"
         style="font-style:normal;font-variant:normal;font-weight:bold;font-stretch:normal;font-size:26.6667px;font-family:'Funnel Display';-inkscape-font-specification:'Funnel Display Bold'">EcoGreenU</tspan></text><path
       style="font-weight:bold;font-size:26.6667px;font-family:'Funnel Display';-inkscape-font-specification:'Funnel Display Bold';display:inline"
       d="M 32.922126,99.000008 H 19.788776 V 80.999985 h 13.13335 v 3.288893 h -9.377789 v 3.777782 h 8.644455 v 3.200005 h -8.644455 v 4.44445 h 9.377789 z m 8.822221,0.266667 c -1.392595,0 -2.614818,-0.281482 -3.666671,-0.844446 -1.037039,-0.577779 -1.851855,-1.385187 -2.444448,-2.422225 -0.577779,-1.037039 -0.866668,-2.259262 -0.866668,-3.666671 0,-1.407409 0.288889,-2.629633 0.866668,-3.666672 0.577779,-1.037038 1.392595,-1.837039 2.444448,-2.400003 1.051853,-0.577779 2.274076,-0.866668 3.666671,-0.866668 1.762965,0 3.214819,0.444445 4.355561,1.333335 1.140742,0.88889 1.859261,2.111114 2.155558,3.666672 H 44.54435 c -0.192593,-0.577779 -0.525926,-1.022224 -1.000001,-1.333335 -0.474075,-0.311112 -1.074075,-0.466668 -1.800002,-0.466668 -0.992594,0 -1.792595,0.325927 -2.400003,0.97778 -0.592593,0.651853 -0.88889,1.570372 -0.88889,2.755559 0,1.185187 0.303704,2.103706 0.911112,2.755559 0.607408,0.651853 1.400002,0.977779 2.377781,0.977779 1.570372,0 2.525929,-0.666668 2.86667,-2.000003 h 3.711116 c -0.266667,1.629632 -0.970372,2.903708 -2.111114,3.822227 -1.140742,0.91852 -2.629633,1.37778 -4.466672,1.37778 z m 14.644445,0 c -1.451854,0 -2.718522,-0.281482 -3.800005,-0.844446 -1.066668,-0.577779 -1.896299,-1.385187 -2.488892,-2.422225 -0.592593,-1.037039 -0.88889,-2.26667 -0.88889,-3.688894 0,-1.407409 0.288889,-2.629632 0.866668,-3.666671 0.592593,-1.037039 1.429631,-1.83704 2.511114,-2.400003 1.081483,-0.562964 2.355558,-0.844446 3.822227,-0.844446 1.451854,0 2.711115,0.281482 3.777783,0.844446 1.066668,0.562963 1.888891,1.362964 2.466669,2.400003 0.577779,1.037039 0.866668,2.26667 0.866668,3.688894 0,1.407409 -0.288889,2.63704 -0.866668,3.688893 -0.577778,1.037039 -1.407409,1.83704 -2.488892,2.400003 -1.066668,0.562964 -2.325929,0.844446 -3.777782,0.844446 z m 0,-3.200004 c 1.111113,0 1.962966,-0.333334 2.555559,-1.000002 0.592593,-0.681482 0.88889,-1.600002 0.88889,-2.755559 0,-1.155557 -0.296297,-2.059261 -0.88889,-2.711114 -0.592593,-0.666668 -1.444446,-1.000002 -2.555559,-1.000002 -1.125927,0 -1.992595,0.333334 -2.600004,1.000002 -0.592593,0.651853 -0.88889,1.555557 -0.88889,2.711114 0,1.155557 0.296297,2.074077 0.88889,2.755559 0.607409,0.666668 1.474077,1.000002 2.600004,1.000002 z m 17.733371,3.200004 c -1.748151,0 -3.288893,-0.385186 -4.622228,-1.155557 -1.318521,-0.785187 -2.355559,-1.874077 -3.111115,-3.266671 -0.740742,-1.392595 -1.111113,-3.000004 -1.111113,-4.822228 0,-1.866669 0.385186,-3.496301 1.155557,-4.888896 0.770371,-1.392594 1.851854,-2.474077 3.244449,-3.244448 1.392594,-0.770371 3.014818,-1.155557 4.866673,-1.155557 1.496298,0 2.814818,0.25926 3.95556,0.777779 1.140742,0.503704 2.074077,1.229631 2.800004,2.17778 0.740741,0.948149 1.207408,2.081484 1.400001,3.400004 h -3.933338 c -0.162963,-0.962964 -0.614816,-1.703706 -1.355557,-2.222225 -0.740742,-0.533334 -1.696299,-0.800001 -2.86667,-0.800001 -1.111113,0 -2.081484,0.244445 -2.911115,0.733335 -0.814816,0.474075 -1.451854,1.162964 -1.911114,2.066669 -0.444445,0.903705 -0.666667,1.962965 -0.666667,3.177782 0,1.244446 0.22963,2.325929 0.688889,3.244448 0.45926,0.903705 1.103705,1.60741 1.933336,2.111114 0.829631,0.488889 1.80741,0.733334 2.933337,0.733334 0.829631,0 1.57778,-0.133333 2.244448,-0.4 0.666667,-0.266667 1.192594,-0.637038 1.577779,-1.111113 0.385186,-0.474075 0.577779,-1.007409 0.577779,-1.600002 v -0.688889 h -4.733339 v -2.911115 h 5.644451 c 0.91852,0 1.60741,0.222222 2.066669,0.666667 0.474075,0.444445 0.711112,1.103706 0.711112,1.977781 v 6.933342 H 79.23328 v -2.088892 h -0.111111 c -0.414815,0.770371 -1.051853,1.355557 -1.911113,1.755558 -0.859261,0.400001 -1.888892,0.600001 -3.088893,0.600001 z m 12.622261,-0.266667 v -9.688902 h -1.822225 v -3.644449 h 3.733338 v 2.622226 h 0.933335 c 0.355556,-0.933335 0.91852,-1.629632 1.688891,-2.088892 0.770371,-0.459259 1.637039,-0.688889 2.600003,-0.688889 h 1.133335 v 3.200004 H 93.72221 c -1.155557,0 -2.00741,0.325926 -2.555559,0.977779 -0.533334,0.651853 -0.800001,1.511113 -0.800001,2.577781 v 6.733342 z m 15.955586,0.266667 c -1.43704,0 -2.68889,-0.281482 -3.755563,-0.844446 -1.066668,-0.577779 -1.888891,-1.385187 -2.46667,-2.422225 -0.577779,-1.051853 -0.866668,-2.288892 -0.866668,-3.711116 0,-1.422224 0.281482,-2.644448 0.844446,-3.666671 0.562963,-1.037039 1.362964,-1.829632 2.400003,-2.377781 1.051855,-0.562964 2.288892,-0.844446 3.711112,-0.844446 1.3926,0 2.5852,0.266667 3.57779,0.800001 1.00741,0.533334 1.77778,1.296298 2.31111,2.288892 0.53333,0.992594 0.8,2.177781 0.8,3.55556 v 1.244446 H 99.144447 c 0.148149,0.992594 0.525926,1.748151 1.133333,2.26667 0.60741,0.518519 1.40741,0.777779 2.40001,0.777779 0.78518,0 1.4074,-0.133334 1.86666,-0.400001 0.45926,-0.266667 0.78519,-0.674075 0.97778,-1.222224 h 3.6889 c -0.2963,1.422224 -1.01482,2.540744 -2.15556,3.35556 -1.14074,0.800001 -2.59259,1.200002 -4.35556,1.200002 z m -3.466674,-8.422233 h 6.488894 c -0.11851,-0.844445 -0.44444,-1.474076 -0.97778,-1.888892 -0.53333,-0.42963 -1.25185,-0.644445 -2.15555,-0.644445 -0.90371,0 -1.64445,0.214815 -2.22223,0.644445 -0.562963,0.429631 -0.940741,1.059261 -1.133334,1.888892 z m 18.577824,8.422233 c -1.43704,0 -2.68889,-0.281482 -3.75556,-0.844446 -1.06667,-0.577779 -1.88889,-1.385187 -2.46667,-2.422225 -0.57778,-1.051853 -0.86667,-2.288892 -0.86667,-3.711116 0,-1.422224 0.28148,-2.644448 0.84445,-3.666671 0.56296,-1.037039 1.36296,-1.829632 2.4,-2.377781 1.05185,-0.562964 2.28889,-0.844446 3.71112,-0.844446 1.39259,0 2.58519,0.266667 3.57778,0.800001 1.00741,0.533334 1.77778,1.296298 2.31111,2.288892 0.53333,0.992594 0.8,2.177781 0.8,3.55556 v 1.244446 H 114.2556 c 0.14815,0.992594 0.52592,1.748151 1.13333,2.26667 0.60741,0.518519 1.40742,0.777779 2.40001,0.777779 0.78519,0 1.40741,-0.133334 1.86667,-0.400001 0.45926,-0.266667 0.78519,-0.674075 0.97778,-1.222224 h 3.68889 c -0.2963,1.422224 -1.01482,2.540744 -2.15556,3.35556 -1.14074,0.800001 -2.59259,1.200002 -4.35556,1.200002 z m -3.46667,-8.422233 h 6.4889 c -0.11852,-0.844445 -0.44445,-1.474076 -0.97778,-1.888892 -0.53333,-0.42963 -1.25185,-0.644445 -2.15556,-0.644445 -0.90371,0 -1.64445,0.214815 -2.22223,0.644445 -0.56296,0.429631 -0.94074,1.059261 -1.13333,1.888892 z m 13.17782,8.155566 v -9.688902 h -1.82223 v -3.644449 h 3.73334 v 2.177781 h 0.93333 c 0.51852,-0.770371 1.17037,-1.362965 1.95556,-1.77778 0.78519,-0.42963 1.76297,-0.644445 2.93334,-0.644445 1.85185,0 3.28148,0.511112 4.28889,1.533335 1.02223,1.007409 1.53334,2.362966 1.53334,4.066672 v 7.977788 h -3.6889 V 91.71111 c 0,-0.977779 -0.26667,-1.718521 -0.8,-2.222226 -0.51851,-0.518519 -1.28148,-0.777778 -2.28889,-0.777778 -1.00741,0 -1.77778,0.259259 -2.31111,0.777778 -0.51852,0.503705 -0.77778,1.244447 -0.77778,2.222226 v 7.288898 z m 24.57779,0.266667 c -1.61481,0 -3.02222,-0.244445 -4.22222,-0.733335 -1.20001,-0.503704 -2.12594,-1.266668 -2.77779,-2.288891 -0.65185,-1.037039 -0.97777,-2.355559 -0.97777,-3.955561 V 80.999985 h 3.84444 v 10.755569 c 0,1.259261 0.33334,2.244447 1.00001,2.955559 0.68148,0.696297 1.76296,1.044446 3.24444,1.044446 1.51111,0 2.5926,-0.370371 3.24445,-1.111112 0.66667,-0.740742 1,-1.696299 1,-2.866671 V 80.999985 h 3.75556 v 11.333348 c 0,2.311114 -0.71852,4.044449 -2.15555,5.200006 -1.43704,1.155557 -3.42223,1.733336 -5.95557,1.733336 z"
       id="text4"
       inkscape:label="EcoGreenU"
       aria-label="EcoGreenU"
       sodipodi:nodetypes="cccccccccccccsccsscssccsscsssccssscsscsssssccsscscscscssccsssscccccsccsccsssscccscsccccsscccccccssccscsccsccsccscssccssscccscccsccsccsccscssccssscccscccsccccccccccscsccscscsccsccsccscscsccsss" /><path
       fill="#000000"
       d="m 156.44111,77.504891 v 1.062369 a 2.7621585,2.7621585 0 0 1 -2.76214,2.762159 h -1.06238 v 2.12474 h -0.84989 v -2.974631 l 0.008,-0.424951 a 2.7621585,2.7621585 0 0 1 2.75408,-2.549686 z m -6.79915,-1.699788 a 2.9763318,2.9763318 0 0 1 2.82292,2.033801 3.1773321,3.1773321 0 0 0 -1.11632,2.215673 h -0.43177 a 2.9746321,2.9746321 0 0 1 -2.97463,-2.974632 v -1.274842 z"
       opacity="1"
       data-original="#000000"
       class=""
       id="path1"
       style="display:inline;fill:#198754;fill-opacity:1;stroke-width:0.424948"
       inkscape:label="plant icon" /><path
       d="m 148.64648,84.130859 v 4.863282 3.009765 c 0,0.711553 0.2199,1.327871 0.50977,1.789063 0.28992,0.454602 0.62846,0.764275 1.16211,0.988281 0.53366,0.217423 1.15883,0.326172 1.87695,0.326172 1.12663,0 1.81947,-0.1858 2.47266,-0.681641 0.58044,-0.4406 1.13476,-1.372593 1.13476,-2.40039 v -3.011719 -4.882813 h -5.44531 -0.74023 z"
       style="font-weight:bold;font-size:26.6667px;font-family:'Funnel Display';-inkscape-font-specification:'Funnel Display Bold';baseline-shift:baseline;display:inline;overflow:visible;vector-effect:none;fill:#552200;enable-background:accumulate;stop-color:#000000;stop-opacity:1"
       id="path64"
       inkscape:label="U fill" /><text
       xml:space="preserve"
       style="font-style:normal;font-variant:normal;font-weight:600;font-stretch:normal;font-size:10.6667px;font-family:'Funnel Display';-inkscape-font-specification:'Funnel Display Semi-Bold';text-align:start;letter-spacing:0px;word-spacing:3.22px;writing-mode:lr-tb;direction:ltr;text-anchor:start;display:none;fill:#552200;fill-opacity:1;fill-rule:nonzero;stroke:none;stroke-opacity:1"
       x="19.026436"
       y="112.73337"
       id="text66"
       inkscape:label="slogan"><tspan
         sodipodi:role="line"
         id="tspan66"
         x="0"
         y="0"
         style="font-style:normal;font-variant:normal;font-weight:300;font-stretch:normal;font-size:10.6667px;font-family:'Funnel Display';-inkscape-font-specification:'Funnel Display Light';letter-spacing:0px;word-spacing:3.22px;fill:#000000"
         dx="0"
         dy="0">help create a better world</tspan></text></g><g
     inkscape:label="light favicon"
     inkscape:groupmode="layer"
     id="g11"
     style="display:none"
     transform="translate(-144.12232,-75.805103)"><path
       style="font-weight:bold;font-size:26.6667px;font-family:'Funnel Display';-inkscape-font-specification:'Funnel Display Bold';display:inline"
       d="m 152.1001,99.266675 c -1.61481,0 -3.02222,-0.244445 -4.22222,-0.733335 -1.20001,-0.503704 -2.12594,-1.266668 -2.77779,-2.288891 -0.65185,-1.037039 -0.97777,-2.355559 -0.97777,-3.955561 V 80.999985 h 3.84444 v 10.755569 c 0,1.259261 0.33334,2.244447 1.00001,2.955559 0.68148,0.696297 1.76296,1.044446 3.24444,1.044446 1.51111,0 2.5926,-0.370371 3.24445,-1.111112 0.66667,-0.740742 1,-1.696299 1,-2.866671 V 80.999985 h 3.75556 v 11.333348 c 0,2.311114 -0.71852,4.044449 -2.15555,5.200006 -1.43704,1.155557 -3.42223,1.733336 -5.95557,1.733336 z"
       id="path9"
       inkscape:label="EcoGreenU"
       aria-label="EcoGreenU"
       sodipodi:nodetypes="sccsccscscsccsss" /><path
       fill="#000000"
       d="m 156.44111,77.504891 v 1.062369 a 2.7621585,2.7621585 0 0 1 -2.76214,2.762159 h -1.06238 v 2.12474 h -0.84989 v -2.974631 l 0.008,-0.424951 a 2.7621585,2.7621585 0 0 1 2.75408,-2.549686 z m -6.79915,-1.699788 a 2.9763318,2.9763318 0 0 1 2.82292,2.033801 3.1773321,3.1773321 0 0 0 -1.11632,2.215673 h -0.43177 a 2.9746321,2.9746321 0 0 1 -2.97463,-2.974632 v -1.274842 z"
       opacity="1"
       data-original="#000000"
       class=""
       id="path10"
       style="display:inline;fill:#198754;fill-opacity:1;stroke-width:0.424948"
       inkscape:label="plant icon" /><path
       d="m 148.64648,84.130859 v 4.863282 3.009765 c 0,0.711553 0.2199,1.327871 0.50977,1.789063 0.28992,0.454602 0.62846,0.764275 1.16211,0.988281 0.53366,0.217423 1.15883,0.326172 1.87695,0.326172 1.12663,0 1.81947,-0.1858 2.47266,-0.681641 0.58044,-0.4406 1.13476,-1.372593 1.13476,-2.40039 v -3.011719 -4.882813 h -5.44531 -0.74023 z"
       style="font-weight:bold;font-size:26.6667px;font-family:'Funnel Display';-inkscape-font-specification:'Funnel Display Bold';baseline-shift:baseline;display:inline;overflow:visible;vector-effect:none;fill:#552200;enable-background:accumulate;stop-color:#000000;stop-opacity:1"
       id="path11"
       inkscape:label="U fill" /></g><g
     inkscape:label="dark green leaf"
     inkscape:groupmode="layer"
     id="g66"
     style="display:none"
     transform="translate(-144.12232,-75.805103)"><rect
       style="display:none;fill:#233128;fill-opacity:1;fill-rule:nonzero;stroke:none;stroke-opacity:1"
       id="rect64"
       width="180"
       height="180"
       x="0"
       y="0"
       inkscape:label="bg" /><text
       xml:space="preserve"
       style="font-size:26.6667px;text-align:start;writing-mode:lr-tb;direction:ltr;text-anchor:start;display:none;fill:#ffffff;fill-opacity:1"
       x="17.899885"
       y="99.000008"
       id="text64"
       inkscape:label="EcoGreenU"><tspan
         sodipodi:role="line"
         id="tspan64"
         x="0"
         y="0"
         style="font-style:normal;font-variant:normal;font-weight:bold;font-stretch:normal;font-size:26.6667px;font-family:'Funnel Display';-inkscape-font-specification:'Funnel Display Bold';fill:#ffffff;fill-opacity:1">EcoGreenU</tspan></text><path
       style="font-weight:bold;font-size:26.6667px;font-family:'Funnel Display';-inkscape-font-specification:'Funnel Display Bold';display:inline;fill:#ffffff"
       d="M 32.922126,99.000008 H 19.788776 V 80.999985 h 13.13335 v 3.288893 h -9.377789 v 3.777782 h 8.644455 v 3.200005 h -8.644455 v 4.44445 h 9.377789 z m 8.822221,0.266667 q -2.088892,0 -3.666671,-0.844446 -1.555558,-0.866668 -2.444448,-2.422225 -0.866668,-1.555558 -0.866668,-3.666671 0,-2.111114 0.866668,-3.666672 0.866668,-1.555557 2.444448,-2.400003 1.577779,-0.866668 3.666671,-0.866668 2.644448,0 4.355561,1.333335 1.711113,1.333335 2.155558,3.666672 H 44.54435 q -0.288889,-0.866668 -1.000001,-1.333335 -0.711112,-0.466668 -1.800002,-0.466668 -1.488891,0 -2.400003,0.97778 -0.88889,0.977779 -0.88889,2.755559 0,1.77778 0.911112,2.755559 0.911112,0.977779 2.377781,0.977779 2.355558,0 2.86667,-2.000003 h 3.711116 q -0.400001,2.444448 -2.111114,3.822227 -1.711113,1.37778 -4.466672,1.37778 z m 14.644445,0 q -2.177781,0 -3.800005,-0.844446 -1.600002,-0.866668 -2.488892,-2.422225 -0.88889,-1.555558 -0.88889,-3.688894 0,-2.111113 0.866668,-3.666671 0.88889,-1.555558 2.511114,-2.400003 1.622224,-0.844446 3.822227,-0.844446 2.177781,0 3.777783,0.844446 1.600002,0.844445 2.466669,2.400003 0.866668,1.555558 0.866668,3.688894 0,2.111113 -0.866668,3.688893 -0.866667,1.555558 -2.488892,2.400003 -1.600002,0.844446 -3.777782,0.844446 z m 0,-3.200004 q 1.666669,0 2.555559,-1.000002 0.88889,-1.022223 0.88889,-2.755559 0,-1.733335 -0.88889,-2.711114 -0.88889,-1.000002 -2.555559,-1.000002 -1.688891,0 -2.600004,1.000002 -0.88889,0.977779 -0.88889,2.711114 0,1.733336 0.88889,2.755559 0.911113,1.000002 2.600004,1.000002 z m 17.733371,3.200004 q -2.622226,0 -4.622228,-1.155557 -1.977781,-1.17778 -3.111115,-3.266671 -1.111113,-2.088892 -1.111113,-4.822228 0,-2.800004 1.155557,-4.888896 1.155557,-2.088891 3.244449,-3.244448 2.088891,-1.155557 4.866673,-1.155557 2.244447,0 3.95556,0.777779 1.711113,0.755556 2.800004,2.17778 1.111112,1.422224 1.400001,3.400004 h -3.933338 q -0.244445,-1.444446 -1.355557,-2.222225 -1.111113,-0.800001 -2.86667,-0.800001 -1.666669,0 -2.911115,0.733335 -1.222224,0.711112 -1.911114,2.066669 -0.666667,1.355557 -0.666667,3.177782 0,1.866669 0.688889,3.244448 0.68889,1.355558 1.933336,2.111114 1.244446,0.733334 2.933337,0.733334 1.244446,0 2.244448,-0.4 1.000001,-0.400001 1.577779,-1.111113 0.577779,-0.711112 0.577779,-1.600002 v -0.688889 h -4.733339 v -2.911115 h 5.644451 q 1.37778,0 2.066669,0.666667 0.711112,0.666668 0.711112,1.977781 v 6.933342 H 79.23328 v -2.088892 h -0.111111 q -0.622223,1.155557 -1.911113,1.755558 -1.288891,0.600001 -3.088893,0.600001 z m 12.622261,-0.266667 v -9.688902 h -1.822225 v -3.644449 h 3.733338 v 2.622226 h 0.933335 q 0.533334,-1.400002 1.688891,-2.088892 1.155557,-0.688889 2.600003,-0.688889 h 1.133335 v 3.200004 H 93.72221 q -1.733335,0 -2.555559,0.977779 -0.800001,0.977779 -0.800001,2.577781 v 6.733342 z m 15.955586,0.266667 q -2.15556,0 -3.755563,-0.844446 -1.600002,-0.866668 -2.46667,-2.422225 -0.866668,-1.57778 -0.866668,-3.711116 0,-2.133336 0.844446,-3.666671 0.844445,-1.555558 2.400003,-2.377781 1.577782,-0.844446 3.711112,-0.844446 2.0889,0 3.57779,0.800001 1.51111,0.800001 2.31111,2.288892 0.8,1.488891 0.8,3.55556 v 1.244446 H 99.144447 q 0.222223,1.488891 1.133333,2.26667 0.91111,0.777779 2.40001,0.777779 1.17777,0 1.86666,-0.400001 0.68889,-0.4 0.97778,-1.222224 h 3.6889 q -0.44445,2.133336 -2.15556,3.35556 -1.71111,1.200002 -4.35556,1.200002 z m -3.466674,-8.422233 h 6.488894 q -0.17777,-1.266668 -0.97778,-1.888892 -0.8,-0.644445 -2.15555,-0.644445 -1.35556,0 -2.22223,0.644445 -0.844444,0.644446 -1.133334,1.888892 z m 18.577824,8.422233 q -2.15556,0 -3.75556,-0.844446 -1.6,-0.866668 -2.46667,-2.422225 -0.86667,-1.57778 -0.86667,-3.711116 0,-2.133336 0.84445,-3.666671 0.84444,-1.555558 2.4,-2.377781 1.57778,-0.844446 3.71112,-0.844446 2.08889,0 3.57778,0.800001 1.51111,0.800001 2.31111,2.288892 0.8,1.488891 0.8,3.55556 v 1.244446 H 114.2556 q 0.22222,1.488891 1.13333,2.26667 0.91112,0.777779 2.40001,0.777779 1.17778,0 1.86667,-0.400001 0.68889,-0.4 0.97778,-1.222224 h 3.68889 q -0.44445,2.133336 -2.15556,3.35556 -1.71111,1.200002 -4.35556,1.200002 z m -3.46667,-8.422233 h 6.4889 q -0.17778,-1.266668 -0.97778,-1.888892 -0.8,-0.644445 -2.15556,-0.644445 -1.35556,0 -2.22223,0.644445 -0.84444,0.644446 -1.13333,1.888892 z m 13.17782,8.155566 v -9.688902 h -1.82223 v -3.644449 h 3.73334 v 2.177781 h 0.93333 q 0.77778,-1.155557 1.95556,-1.77778 1.17778,-0.644445 2.93334,-0.644445 2.77778,0 4.28889,1.533335 1.53334,1.511113 1.53334,4.066672 v 7.977788 h -3.6889 V 91.71111 q 0,-1.466669 -0.8,-2.222226 -0.77777,-0.777778 -2.28889,-0.777778 -1.51111,0 -2.31111,0.777778 -0.77778,0.755557 -0.77778,2.222226 v 7.288898 z m 24.57779,0.266667 q -2.42222,0 -4.22222,-0.733335 -1.80001,-0.755556 -2.77779,-2.288891 -0.97777,-1.555558 -0.97777,-3.955561 V 80.999985 h 3.84444 v 10.755569 q 0,1.888891 1.00001,2.955559 1.02222,1.044446 3.24444,1.044446 2.26667,0 3.24445,-1.111112 1,-1.111113 1,-2.866671 V 80.999985 h 3.75556 v 11.333348 q 0,3.466671 -2.15555,5.200006 -2.15556,1.733336 -5.95557,1.733336 z"
       id="text6"
       inkscape:label="EcoGreenU"
       aria-label="EcoGreenU" /><path
       fill="#000000"
       d="m 156.44111,77.504891 v 1.062369 a 2.7621585,2.7621585 0 0 1 -2.76214,2.762159 h -1.06238 v 2.12474 h -0.84989 v -2.974631 l 0.008,-0.424951 a 2.7621585,2.7621585 0 0 1 2.75408,-2.549686 z m -6.79915,-1.699788 a 2.9763318,2.9763318 0 0 1 2.82292,2.033801 3.1773321,3.1773321 0 0 0 -1.11632,2.215673 h -0.43177 a 2.9746321,2.9746321 0 0 1 -2.97463,-2.974632 v -1.274842 z"
       opacity="1"
       data-original="#000000"
       class=""
       id="path65"
       style="fill:#198754;fill-opacity:1;stroke-width:0.424948"
       inkscape:label="plant icon" /><path
       d="m 148.64648,84.130859 v 4.863282 3.009765 c 0,0.711553 0.2199,1.327871 0.50977,1.789063 0.28992,0.454602 0.62846,0.764275 1.16211,0.988281 0.53366,0.217423 1.15883,0.326172 1.87695,0.326172 1.12663,0 1.81947,-0.1858 2.47266,-0.681641 0.58044,-0.4406 1.13476,-1.372593 1.13476,-2.40039 v -3.011719 -4.882813 h -5.44531 -0.74023 z"
       style="font-weight:bold;font-size:26.6667px;font-family:'Funnel Display';-inkscape-font-specification:'Funnel Display Bold';baseline-shift:baseline;display:inline;overflow:visible;vector-effect:none;fill:#ffffff;fill-opacity:1;enable-background:accumulate;stop-color:#000000;stop-opacity:1"
       id="path66"
       inkscape:label="U fill" /></g><g
     inkscape:label="dark white leaf"
     inkscape:groupmode="layer"
     id="g4"
     style="display:none"
     transform="translate(-144.12232,-75.805103)"><rect
       style="display:none;fill:#233128;fill-opacity:1;fill-rule:nonzero;stroke:none;stroke-opacity:1"
       id="rect3"
       width="180"
       height="180"
       x="0"
       y="0"
       inkscape:label="bg" /><text
       xml:space="preserve"
       style="font-size:26.6667px;text-align:start;writing-mode:lr-tb;direction:ltr;text-anchor:start;display:none;fill:#ffffff;fill-opacity:1"
       x="17.899885"
       y="99.000008"
       id="text3"
       inkscape:label="EcoGreenU"><tspan
         sodipodi:role="line"
         id="tspan3"
         x="0"
         y="0"
         style="font-style:normal;font-variant:normal;font-weight:bold;font-stretch:normal;font-size:26.6667px;font-family:'Funnel Display';-inkscape-font-specification:'Funnel Display Bold';fill:#ffffff;fill-opacity:1">EcoGreenU</tspan></text><path
       style="font-weight:bold;font-size:26.6667px;font-family:'Funnel Display';-inkscape-font-specification:'Funnel Display Bold';display:inline;fill:#ffffff"
       d="M 32.922126,99.000008 H 19.788776 V 80.999985 h 13.13335 v 3.288893 h -9.377789 v 3.777782 h 8.644455 v 3.200005 h -8.644455 v 4.44445 h 9.377789 z m 8.822221,0.266667 q -2.088892,0 -3.666671,-0.844446 -1.555558,-0.866668 -2.444448,-2.422225 -0.866668,-1.555558 -0.866668,-3.666671 0,-2.111114 0.866668,-3.666672 0.866668,-1.555557 2.444448,-2.400003 1.577779,-0.866668 3.666671,-0.866668 2.644448,0 4.355561,1.333335 1.711113,1.333335 2.155558,3.666672 H 44.54435 q -0.288889,-0.866668 -1.000001,-1.333335 -0.711112,-0.466668 -1.800002,-0.466668 -1.488891,0 -2.400003,0.97778 -0.88889,0.977779 -0.88889,2.755559 0,1.77778 0.911112,2.755559 0.911112,0.977779 2.377781,0.977779 2.355558,0 2.86667,-2.000003 h 3.711116 q -0.400001,2.444448 -2.111114,3.822227 -1.711113,1.37778 -4.466672,1.37778 z m 14.644445,0 q -2.177781,0 -3.800005,-0.844446 -1.600002,-0.866668 -2.488892,-2.422225 -0.88889,-1.555558 -0.88889,-3.688894 0,-2.111113 0.866668,-3.666671 0.88889,-1.555558 2.511114,-2.400003 1.622224,-0.844446 3.822227,-0.844446 2.177781,0 3.777783,0.844446 1.600002,0.844445 2.466669,2.400003 0.866668,1.555558 0.866668,3.688894 0,2.111113 -0.866668,3.688893 -0.866667,1.555558 -2.488892,2.400003 -1.600002,0.844446 -3.777782,0.844446 z m 0,-3.200004 q 1.666669,0 2.555559,-1.000002 0.88889,-1.022223 0.88889,-2.755559 0,-1.733335 -0.88889,-2.711114 -0.88889,-1.000002 -2.555559,-1.000002 -1.688891,0 -2.600004,1.000002 -0.88889,0.977779 -0.88889,2.711114 0,1.733336 0.88889,2.755559 0.911113,1.000002 2.600004,1.000002 z m 17.733371,3.200004 q -2.622226,0 -4.622228,-1.155557 -1.977781,-1.17778 -3.111115,-3.266671 -1.111113,-2.088892 -1.111113,-4.822228 0,-2.800004 1.155557,-4.888896 1.155557,-2.088891 3.244449,-3.244448 2.088891,-1.155557 4.866673,-1.155557 2.244447,0 3.95556,0.777779 1.711113,0.755556 2.800004,2.17778 1.111112,1.422224 1.400001,3.400004 h -3.933338 q -0.244445,-1.444446 -1.355557,-2.222225 -1.111113,-0.800001 -2.86667,-0.800001 -1.666669,0 -2.911115,0.733335 -1.222224,0.711112 -1.911114,2.066669 -0.666667,1.355557 -0.666667,3.177782 0,1.866669 0.688889,3.244448 0.68889,1.355558 1.933336,2.111114 1.244446,0.733334 2.933337,0.733334 1.244446,0 2.244448,-0.4 1.000001,-0.400001 1.577779,-1.111113 0.577779,-0.711112 0.577779,-1.600002 v -0.688889 h -4.733339 v -2.911115 h 5.644451 q 1.37778,0 2.066669,0.666667 0.711112,0.666668 0.711112,1.977781 v 6.933342 H 79.23328 v -2.088892 h -0.111111 q -0.622223,1.155557 -1.911113,1.755558 -1.288891,0.600001 -3.088893,0.600001 z m 12.622261,-0.266667 v -9.688902 h -1.822225 v -3.644449 h 3.733338 v 2.622226 h 0.933335 q 0.533334,-1.400002 1.688891,-2.088892 1.155557,-0.688889 2.600003,-0.688889 h 1.133335 v 3.200004 H 93.72221 q -1.733335,0 -2.555559,0.977779 -0.800001,0.977779 -0.800001,2.577781 v 6.733342 z m 15.955586,0.266667 q -2.15556,0 -3.755563,-0.844446 -1.600002,-0.866668 -2.46667,-2.422225 -0.866668,-1.57778 -0.866668,-3.711116 0,-2.133336 0.844446,-3.666671 0.844445,-1.555558 2.400003,-2.377781 1.577782,-0.844446 3.711112,-0.844446 2.0889,0 3.57779,0.800001 1.51111,0.800001 2.31111,2.288892 0.8,1.488891 0.8,3.55556 v 1.244446 H 99.144447 q 0.222223,1.488891 1.133333,2.26667 0.91111,0.777779 2.40001,0.777779 1.17777,0 1.86666,-0.400001 0.68889,-0.4 0.97778,-1.222224 h 3.6889 q -0.44445,2.133336 -2.15556,3.35556 -1.71111,1.200002 -4.35556,1.200002 z m -3.466674,-8.422233 h 6.488894 q -0.17777,-1.266668 -0.97778,-1.888892 -0.8,-0.644445 -2.15555,-0.644445 -1.35556,0 -2.22223,0.644445 -0.844444,0.644446 -1.133334,1.888892 z m 18.577824,8.422233 q -2.15556,0 -3.75556,-0.844446 -1.6,-0.866668 -2.46667,-2.422225 -0.86667,-1.57778 -0.86667,-3.711116 0,-2.133336 0.84445,-3.666671 0.84444,-1.555558 2.4,-2.377781 1.57778,-0.844446 3.71112,-0.844446 2.08889,0 3.57778,0.800001 1.51111,0.800001 2.31111,2.288892 0.8,1.488891 0.8,3.55556 v 1.244446 H 114.2556 q 0.22222,1.488891 1.13333,2.26667 0.91112,0.777779 2.40001,0.777779 1.17778,0 1.86667,-0.400001 0.68889,-0.4 0.97778,-1.222224 h 3.68889 q -0.44445,2.133336 -2.15556,3.35556 -1.71111,1.200002 -4.35556,1.200002 z m -3.46667,-8.422233 h 6.4889 q -0.17778,-1.266668 -0.97778,-1.888892 -0.8,-0.644445 -2.15556,-0.644445 -1.35556,0 -2.22223,0.644445 -0.84444,0.644446 -1.13333,1.888892 z m 13.17782,8.155566 v -9.688902 h -1.82223 v -3.644449 h 3.73334 v 2.177781 h 0.93333 q 0.77778,-1.155557 1.95556,-1.77778 1.17778,-0.644445 2.93334,-0.644445 2.77778,0 4.28889,1.533335 1.53334,1.511113 1.53334,4.066672 v 7.977788 h -3.6889 V 91.71111 q 0,-1.466669 -0.8,-2.222226 -0.77777,-0.777778 -2.28889,-0.777778 -1.51111,0 -2.31111,0.777778 -0.77778,0.755557 -0.77778,2.222226 v 7.288898 z m 24.57779,0.266667 q -2.42222,0 -4.22222,-0.733335 -1.80001,-0.755556 -2.77779,-2.288891 -0.97777,-1.555558 -0.97777,-3.955561 V 80.999985 h 3.84444 v 10.755569 q 0,1.888891 1.00001,2.955559 1.02222,1.044446 3.24444,1.044446 2.26667,0 3.24445,-1.111112 1,-1.111113 1,-2.866671 V 80.999985 h 3.75556 v 11.333348 q 0,3.466671 -2.15555,5.200006 -2.15556,1.733336 -5.95557,1.733336 z"
       id="text7"
       inkscape:label="EcoGreenU"
       aria-label="EcoGreenU" /><path
       fill="#000000"
       d="m 156.44111,77.504891 v 1.062369 a 2.7621585,2.7621585 0 0 1 -2.76214,2.762159 h -1.06238 v 2.12474 h -0.84989 v -2.974631 l 0.008,-0.424951 a 2.7621585,2.7621585 0 0 1 2.75408,-2.549686 z m -6.79915,-1.699788 a 2.9763318,2.9763318 0 0 1 2.82292,2.033801 3.1773321,3.1773321 0 0 0 -1.11632,2.215673 h -0.43177 a 2.9746321,2.9746321 0 0 1 -2.97463,-2.974632 v -1.274842 z"
       opacity="1"
       data-original="#000000"
       class=""
       id="path3"
       style="fill:#ffffff;fill-opacity:1;stroke-width:0.424948"
       inkscape:label="plant icon" /><path
       d="m 148.64648,84.130859 v 4.863282 3.009765 c 0,0.711553 0.2199,1.327871 0.50977,1.789063 0.28992,0.454602 0.62846,0.764275 1.16211,0.988281 0.53366,0.217423 1.15883,0.326172 1.87695,0.326172 1.12663,0 1.81947,-0.1858 2.47266,-0.681641 0.58044,-0.4406 1.13476,-1.372593 1.13476,-2.40039 v -3.011719 -4.882813 h -5.44531 -0.74023 z"
       style="font-weight:bold;font-size:26.6667px;font-family:'Funnel Display';-inkscape-font-specification:'Funnel Display Bold';baseline-shift:baseline;display:inline;overflow:visible;vector-effect:none;fill:#ffffff;fill-opacity:1;enable-background:accumulate;stop-color:#000000;stop-opacity:1"
       id="path4"
       inkscape:label="U fill" /></g><g
     inkscape:label="favicon dark"
     inkscape:groupmode="layer"
     id="g16"
     style="display:inline"
     transform="translate(-144.12232,-75.805103)"><rect
       style="display:none;fill:#233128;fill-opacity:1;fill-rule:nonzero;stroke:none;stroke-opacity:1"
       id="rect14"
       width="180"
       height="180"
       x="0"
       y="0"
       inkscape:label="bg" /><path
       style="font-weight:bold;font-size:26.6667px;font-family:'Funnel Display';-inkscape-font-specification:'Funnel Display Bold';display:inline;fill:#ffffff"
       d="m 152.1001,99.266675 c -1.61481,0 -3.02222,-0.244445 -4.22222,-0.733335 -1.20001,-0.503704 -2.12594,-1.266668 -2.77779,-2.288891 -0.65185,-1.037039 -0.97777,-2.355559 -0.97777,-3.955561 V 80.999985 h 3.84444 v 10.755569 c 0,1.259261 0.33334,2.244447 1.00001,2.955559 0.68148,0.696297 1.76296,1.044446 3.24444,1.044446 1.51111,0 2.5926,-0.370371 3.24445,-1.111112 0.66667,-0.740742 1,-1.696299 1,-2.866671 V 80.999985 h 3.75556 v 11.333348 c 0,2.311114 -0.71852,4.044449 -2.15555,5.200006 -1.43704,1.155557 -3.42223,1.733336 -5.95557,1.733336 z"
       id="path14"
       inkscape:label="EcoGreenU"
       aria-label="EcoGreenU"
       sodipodi:nodetypes="sccsccscscsccsss" /><path
       fill="#000000"
       d="m 156.44111,77.504891 v 1.062369 a 2.7621585,2.7621585 0 0 1 -2.76214,2.762159 h -1.06238 v 2.12474 h -0.84989 v -2.974631 l 0.008,-0.424951 a 2.7621585,2.7621585 0 0 1 2.75408,-2.549686 z m -6.79915,-1.699788 a 2.9763318,2.9763318 0 0 1 2.82292,2.033801 3.1773321,3.1773321 0 0 0 -1.11632,2.215673 h -0.43177 a 2.9746321,2.9746321 0 0 1 -2.97463,-2.974632 v -1.274842 z"
       opacity="1"
       data-original="#000000"
       class=""
       id="path15"
       style="fill:#ffffff;fill-opacity:1;stroke-width:0.424948"
       inkscape:label="plant icon" /><path
       d="m 148.64648,84.130859 v 4.863282 3.009765 c 0,0.711553 0.2199,1.327871 0.50977,1.789063 0.28992,0.454602 0.62846,0.764275 1.16211,0.988281 0.53366,0.217423 1.15883,0.326172 1.87695,0.326172 1.12663,0 1.81947,-0.1858 2.47266,-0.681641 0.58044,-0.4406 1.13476,-1.372593 1.13476,-2.40039 v -3.011719 -4.882813 h -5.44531 -0.74023 z"
       style="font-weight:bold;font-size:26.6667px;font-family:'Funnel Display';-inkscape-font-specification:'Funnel Display Bold';baseline-shift:baseline;display:inline;overflow:visible;vector-effect:none;fill:#ffffff;fill-opacity:1;enable-background:accumulate;stop-color:#000000;stop-opacity:1"
       id="path16"
       inkscape:label="U fill" /></g></svg>
